<svg xmlns="http://www.w3.org/2000/svg" xmlns:xlink="http://www.w3.org/1999/xlink" width="151.759" height="132.882" viewBox="0 0 151.759 132.882">
  <defs>
    <clipPath id="clip-path">
      <rect id="Rectangle_81" data-name="Rectangle 81" width="151.759" height="132.882" fill="#3ca3dc"/>
    </clipPath>
  </defs>
  <g id="Groupe_213" data-name="Groupe 213" transform="translate(0 0)">
    <g id="Groupe_212" data-name="Groupe 212" transform="translate(0 0)" clip-path="url(#clip-path)">
      <path id="Tracé_8" data-name="Tracé 8" d="M125.539,42.634c0,9.934-.176,19.873.069,29.8a12.66,12.66,0,0,1-12.676,12.584c-2.171-.008-4.354.143-6.509-.043-1.943-.166-2.295.651-2.252,2.352.1,3.879,0,7.763.049,11.643.02,1.461-.36,2.556-1.8,3.157-1.425.592-2.41-.117-3.326-1.03C94.2,96.226,89.3,91.362,84.459,86.437a4.336,4.336,0,0,0-3.431-1.448c-9.079.071-18.158.054-27.236.03-7.9-.02-13.165-5.351-13.168-13.283,0-19.408.146-38.819-.084-58.224A13.23,13.23,0,0,1,53.963,0C73.633.26,93.305.072,112.978.1A12.2,12.2,0,0,1,125.3,9.7a13.878,13.878,0,0,1,.245,3.524q.02,14.706.007,29.41ZM98.184,92.417l.477-.235q0-4.486,0-8.97c0-3.02.7-3.76,3.645-3.784,3.288-.025,6.577.008,9.865,0,5.04-.023,7.809-2.79,7.811-7.815q.007-29.107,0-58.214c0-4.97-2.714-7.71-7.643-7.71q-29.3,0-58.608,0c-4.6,0-7.493,2.851-7.5,7.506Q46.214,42.3,46.247,71.4c.008,5.356,2.683,7.972,8.036,7.983,9.669.02,19.339.043,29.008.008a4.486,4.486,0,0,1,3.507,1.42c1.823,1.9,3.708,3.731,5.552,5.606,1.954,1.99,3.89,4,5.835,6" transform="translate(26.147 0.001)" fill="#3ca3dc"/>
      <path id="Tracé_9" data-name="Tracé 9" d="M26.893,110.838a8.538,8.538,0,0,0,2.5-1.994c3.167-3.155,6.342-6.3,9.477-9.488a4.525,4.525,0,0,1,3.5-1.438c9.8.049,19.6.025,29.406.02,4.665,0,7.491-2.764,7.546-7.427.039-3.354-.008-6.71.01-10.066.012-2.1,1.031-3.367,2.695-3.417,1.791-.053,2.94,1.229,2.872,3.445-.138,4.524.512,9.079-.36,13.57-.962,4.968-5.539,9.253-10.6,9.385-9.334.243-18.677.222-28.016.122a7.03,7.03,0,0,0-5.68,2.344c-4.4,4.616-9.008,9.039-13.471,13.6-1.13,1.156-2.338,1.762-3.858,1.186-1.589-.6-1.592-2.053-1.586-3.484.023-4.014-.041-8.028.03-12.04.021-1.23-.362-1.558-1.568-1.541-2.956.039-5.927.077-8.868-.161A11.9,11.9,0,0,1,.048,91.92Q-.058,61.034.066,30.148C.091,24.076,5.8,18.641,12.094,18.615c15.723-.067,31.446-.028,47.169-.013,2.117,0,3.561,1.227,3.538,2.884-.025,1.681-1.2,2.691-3.389,2.778-1.839.072-3.683.058-5.524.058q-20.33,0-40.656,0C8.207,24.328,5.575,27,5.573,32.005q-.007,29.208,0,58.418c0,4.79,2.755,7.514,7.6,7.521,3.422,0,6.842-.016,10.263.008,2.507.018,3.446.967,3.459,3.45.015,3.06,0,6.119,0,9.436" transform="translate(0 11.983)" fill="#3ca3dc"/>
      <path id="Tracé_10" data-name="Tracé 10" d="M17.423,79.311c-2.408,0-3.807-2.091-2.925-4.553,3.075-8.584,6.2-17.149,9.3-25.721,2.055-5.672,4.155-11.328,6.156-17.019.563-1.6,1.512-2.726,3.163-2.818,1.8-.1,2.844,1.119,3.43,2.737Q44.278,53.293,52,74.648a3.344,3.344,0,0,1-1.643,4.468c-1.829.744-3.52-.058-4.325-2.191q-2.6-6.909-5.067-13.864a2,2,0,0,0-2.249-1.612q-5.522.136-11.051-.008A1.848,1.848,0,0,0,25.6,62.965c-1.617,4.573-3.3,9.123-4.943,13.69-.556,1.551-1.415,2.672-3.232,2.657M33.25,41.966c-1.6,4.422-3,8.274-4.389,12.132-.247.686.11.984.776.984q3.649,0,7.3-.012c.64,0,1.028-.229.76-.962-1.411-3.856-2.824-7.712-4.446-12.142" transform="translate(9.18 18.831)" fill="#3ca3dc"/>
      <path id="Tracé_11" data-name="Tracé 11" d="M70.348,21.762c-4.864,0-9.727.016-14.591-.007-2.157-.012-3.468-1.235-3.471-3.144,0-1.939,1.285-3.2,3.45-3.213,4.866-.035,9.734-.039,14.6.016,1.3.015,2-.123,2.048-1.739.064-2.061,1.416-3.081,3.374-3.024a2.98,2.98,0,0,1,3.015,3.2c.007,1.441.6,1.559,1.75,1.55,4.734-.041,9.47-.016,14.206,0,2.561.007,3.937.985,4.193,2.945.224,1.694-1.017,2.987-3.455,3.423a1.95,1.95,0,0,0-1.448,1.168A103.953,103.953,0,0,1,80.011,42.41c-1.022,1.13-.614,1.737.257,2.537a147.822,147.822,0,0,0,11.591,9.794,3.188,3.188,0,0,1,1.476,3.4,3.229,3.229,0,0,1-2.5,2.519,3.531,3.531,0,0,1-3.078-.949,118.229,118.229,0,0,1-12-10.214c-.961-.938-1.512-1.033-2.515-.058A111.578,111.578,0,0,1,61.176,59.59c-2.15,1.564-3.932,1.479-5.164-.209-1.117-1.528-.637-3.448,1.285-4.9,3.937-2.977,7.7-6.159,11.347-9.48,1.066-.971,1.286-1.619.148-2.833A98.1,98.1,0,0,1,58.93,29.381C57.344,27,57.471,25.02,59.262,23.9c1.808-1.135,3.486-.536,5.019,1.867a123.245,123.245,0,0,0,8.893,11.8c.882,1.074,1.461,1.382,2.522.128A123.648,123.648,0,0,0,86.252,23.449c.77-1.229.642-1.666-.91-1.648-5,.056-10,.02-14.994.02v-.059" transform="translate(33.725 6.871)" fill="#3ca3dc"/>
    </g>
  </g>
</svg>
