<svg xmlns="http://www.w3.org/2000/svg" width="21.477" height="19.517" viewBox="0 0 21.477 19.517">
  <g id="Bank_Card_double_-_1" data-name="Bank Card double - 1" transform="translate(-1.261 -2.242)">
    <path id="Tracé_516" data-name="Tracé 516" d="M4.562,11.6A4.936,4.936,0,0,1,9.624,6.35h7.7a.3.3,0,0,0,.257-.454l-.888-1.479a3.952,3.952,0,0,0-5.673-1.538L3.27,7.549a3.948,3.948,0,0,0-1.3,5.738l2.034,3.324a.3.3,0,0,0,.556-.157Z" fill-rule="evenodd"/>
    <path id="Tracé_517" data-name="Tracé 517" d="M18.686,13.07H9.611a.75.75,0,0,1,0-1.5h9.075a.75.75,0,0,1,0,1.5Zm-.01-5.72H9.624A3.938,3.938,0,0,0,5.562,11.6v5.92a3.933,3.933,0,0,0,4.062,4.24h9.051a3.934,3.934,0,0,0,4.064-4.24V11.6A3.938,3.938,0,0,0,18.676,7.35Z" fill-rule="evenodd"/>
  </g>
</svg>
