<svg xmlns="http://www.w3.org/2000/svg" width="18.998" height="15.92" viewBox="0 0 18.998 15.92">
  <g id="Bank_Card" data-name="Bank Card" transform="translate(-2.501 -4.039)">
    <path id="Tracé_544" data-name="Tracé 544" d="M12.21,15.919H10.782a.75.75,0,1,1,0-1.5H12.21a.75.75,0,0,1,0,1.5Zm-3.884,0H6.9a.75.75,0,0,1,0-1.5H8.326a.75.75,0,0,1,0,1.5ZM2.8,10.589a.3.3,0,0,0-.3.3v4.4a4.327,4.327,0,0,0,4.463,4.67h10.07a4.327,4.327,0,0,0,4.465-4.67v-4.4a.3.3,0,0,0-.3-.3Z" fill-rule="evenodd"/>
    <path id="Tracé_545" data-name="Tracé 545" d="M21.2,9.089a.3.3,0,0,0,.3-.3v-.08a4.327,4.327,0,0,0-4.464-4.67H6.964A4.327,4.327,0,0,0,2.5,8.709v.08a.3.3,0,0,0,.3.3Z" fill-rule="evenodd"/>
  </g>
</svg>
