<svg xmlns="http://www.w3.org/2000/svg" width="20.121" height="18.742" viewBox="0 0 20.121 18.742">
  <g id="Bank_Card_swap" data-name="Bank Card swap" transform="translate(-95.939 604.371)">
    <path id="Tracé_682" data-name="Tracé 682" d="M10.076,13.1H5a1.938,1.938,0,0,0-2,2.1V18.52a1.936,1.936,0,0,0,2,2.1h5.078a1.936,1.936,0,0,0,2-2.1V15.2A1.936,1.936,0,0,0,10.076,13.1Z" transform="translate(94 -607)" fill="none" stroke="#000" stroke-linecap="round" stroke-linejoin="round" stroke-width="1.5" fill-rule="evenodd"/>
    <path id="Tracé_683" data-name="Tracé 683" d="M3,15.768h9.075" transform="translate(94 -607)" fill="none" stroke="#000" stroke-linecap="round" stroke-linejoin="round" stroke-width="1.5"/>
    <path id="Tracé_684" data-name="Tracé 684" d="M19,3.379H13.922a1.938,1.938,0,0,0-2,2.1V8.8a1.936,1.936,0,0,0,2,2.1H19a1.936,1.936,0,0,0,2-2.1V5.48A1.936,1.936,0,0,0,19,3.379Z" transform="translate(94 -607)" fill="none" stroke="#000" stroke-linecap="round" stroke-linejoin="round" stroke-width="1.5" fill-rule="evenodd"/>
    <path id="Tracé_685" data-name="Tracé 685" d="M11.924,6.045H21" transform="translate(94 -607)" fill="none" stroke="#000" stroke-linecap="round" stroke-linejoin="round" stroke-width="1.5"/>
    <path id="Tracé_686" data-name="Tracé 686" d="M19.64,15.172v2.05a3.4,3.4,0,0,1-3.4,3.4" transform="translate(94 -607)" fill="none" stroke="#000" stroke-linecap="round" stroke-linejoin="round" stroke-width="1.5"/>
    <path id="Tracé_687" data-name="Tracé 687" d="M18.282,16.456,19.64,15.1,21,16.456" transform="translate(94 -607)" fill="none" stroke="#000" stroke-linecap="round" stroke-linejoin="round" stroke-width="1.5"/>
    <path id="Tracé_688" data-name="Tracé 688" d="M4.358,8.827V6.777a3.4,3.4,0,0,1,3.4-3.4" transform="translate(94 -607)" fill="none" stroke="#000" stroke-linecap="round" stroke-linejoin="round" stroke-width="1.5"/>
    <path id="Tracé_689" data-name="Tracé 689" d="M5.718,7.543,4.359,8.9,3,7.543" transform="translate(94 -607)" fill="none" stroke="#000" stroke-linecap="round" stroke-linejoin="round" stroke-width="1.5"/>
  </g>
</svg>
