<svg xmlns="http://www.w3.org/2000/svg" width="21.5" height="19.492" viewBox="0 0 21.5 19.492">
  <g id="Bank_Card_double" data-name="Bank Card double" transform="translate(-1.5 -2.254)">
    <path id="Tracé_518" data-name="Tracé 518" d="M6.486,8.124A4.2,4.2,0,0,1,9.636,6.836h9.051a4.2,4.2,0,0,1,3.154,1.288A4.627,4.627,0,0,1,23,11.331v5.921a4.627,4.627,0,0,1-1.159,3.206,4.2,4.2,0,0,1-3.155,1.288H9.636a4.2,4.2,0,0,1-3.154-1.288,4.628,4.628,0,0,1-1.158-3.206V11.331A4.625,4.625,0,0,1,6.486,8.124Zm1.1,1.023a3.134,3.134,0,0,0-.759,2.184v5.921a3.137,3.137,0,0,0,.756,2.184,2.7,2.7,0,0,0,2.056.81h9.05a2.707,2.707,0,0,0,2.057-.81,3.136,3.136,0,0,0,.757-2.184V11.331a3.136,3.136,0,0,0-.757-2.184,2.7,2.7,0,0,0-2.056-.81H9.636A2.7,2.7,0,0,0,7.583,9.147Z" fill-rule="evenodd"/>
    <path id="Tracé_519" data-name="Tracé 519" d="M8.872,12.051a.75.75,0,0,1,.75-.75H18.7a.75.75,0,0,1,0,1.5H9.622A.75.75,0,0,1,8.872,12.051Z" fill-rule="evenodd"/>
    <path id="Tracé_520" data-name="Tracé 520" d="M14.744,2.4a4.648,4.648,0,0,1,2.647,2.142l0,0,1.586,2.643a.75.75,0,0,1-1.286.772l-1.584-2.64v0A3.157,3.157,0,0,0,14.33,3.847a2.7,2.7,0,0,0-2.181.367L4.4,8.877a2.709,2.709,0,0,0-1.345,1.755A3.147,3.147,0,0,0,3.527,12.9h0l3.066,5.074a3.086,3.086,0,0,0,.387.535.75.75,0,0,1,.2.506v.008a.75.75,0,0,1-1.364.431,4.639,4.639,0,0,1-.512-.719L2.241,13.67a4.638,4.638,0,0,1-.653-3.35A4.2,4.2,0,0,1,3.627,7.592l7.748-4.663A4.2,4.2,0,0,1,14.744,2.4Z" fill-rule="evenodd"/>
  </g>
</svg>
