<svg xmlns="http://www.w3.org/2000/svg" width="19.5" height="18.078" viewBox="0 0 19.5 18.078">
  <g id="Bar_chart_Vertical_alt" data-name="Bar chart Vertical alt" transform="translate(-2.75 -3.08)">
    <path id="Tracé_622" data-name="Tracé 622" d="M19.643,4.58a1.108,1.108,0,0,0-1.107,1.108V18.549a1.107,1.107,0,0,0,2.215,0V5.688A1.108,1.108,0,0,0,19.643,4.58ZM17.035,5.688a2.607,2.607,0,1,1,5.215,0V18.549a2.607,2.607,0,0,1-5.215,0ZM2.75,10.213a2.607,2.607,0,1,1,5.215,0v8.335a2.607,2.607,0,0,1-5.215,0ZM5.357,9.106A1.108,1.108,0,0,0,4.25,10.213v8.335a1.107,1.107,0,0,0,2.215,0V10.213A1.108,1.108,0,0,0,5.357,9.106Z" fill-rule="evenodd"/>
    <path id="Tracé_623" data-name="Tracé 623" d="M9.893,14.991a2.607,2.607,0,0,1,5.215,0V18.55a2.607,2.607,0,1,1-5.215,0ZM12.5,13.884a1.107,1.107,0,0,0-1.107,1.107V18.55a1.107,1.107,0,1,0,2.215,0V14.991A1.107,1.107,0,0,0,12.5,13.884Z" fill-rule="evenodd"/>
  </g>
</svg>
