<svg xmlns="http://www.w3.org/2000/svg" width="19" height="19" viewBox="0 0 19 19">
  <g id="Chart_three_line" data-name="Chart three line" transform="translate(-3 -2.5)">
    <path id="Tracé_624" data-name="Tracé 624" d="M12.5,11.189a2.054,2.054,0,0,0-2.052,2.051v6.21a2.052,2.052,0,0,0,4.1,0v-6.21A2.054,2.054,0,0,0,12.5,11.189Z" fill-rule="evenodd"/>
    <path id="Tracé_625" data-name="Tracé 625" d="M5.052,6.22A2.054,2.054,0,0,0,3,8.27V19.45a2.052,2.052,0,0,0,4.1,0V8.27A2.053,2.053,0,0,0,5.052,6.22Z" fill-rule="evenodd"/>
    <path id="Tracé_626" data-name="Tracé 626" d="M19.948,2.5A2.053,2.053,0,0,0,17.9,4.55v14.9a2.052,2.052,0,0,0,4.1,0V4.55A2.054,2.054,0,0,0,19.948,2.5Z" fill-rule="evenodd"/>
  </g>
</svg>
