<svg xmlns="http://www.w3.org/2000/svg" width="20.119" height="18.78" viewBox="0 0 20.119 18.78">
  <g id="Coin_to_card_swap_2" data-name="Coin to card swap 2" transform="translate(-1.94 -2.609)">
    <path id="Tracé_761" data-name="Tracé 761" d="M5.718,7.564,4.36,8.923,3,7.564" fill="none" stroke="#000" stroke-linecap="round" stroke-linejoin="round" stroke-width="1.5"/>
    <path id="Tracé_762" data-name="Tracé 762" d="M4.357,8.846V6.795a3.4,3.4,0,0,1,3.4-3.4" fill="none" stroke="#000" stroke-linecap="round" stroke-linejoin="round" stroke-width="1.5"/>
    <path id="Tracé_763" data-name="Tracé 763" d="M18.281,16.472l1.359-1.359L21,16.472" fill="none" stroke="#000" stroke-linecap="round" stroke-linejoin="round" stroke-width="1.5"/>
    <path id="Tracé_764" data-name="Tracé 764" d="M19.641,15.191v2.051a3.4,3.4,0,0,1-3.4,3.4" fill="none" stroke="#000" stroke-linecap="round" stroke-linejoin="round" stroke-width="1.5"/>
    <path id="Tracé_765" data-name="Tracé 765" d="M10.077,13.117H5a1.938,1.938,0,0,0-2,2.1V18.54a1.936,1.936,0,0,0,2,2.1h5.078a1.935,1.935,0,0,0,2-2.1V15.218A1.936,1.936,0,0,0,10.077,13.117Z" fill="none" stroke="#000" stroke-linecap="round" stroke-linejoin="round" stroke-width="1.5" fill-rule="evenodd"/>
    <path id="Tracé_766" data-name="Tracé 766" d="M3,15.787h9.075" fill="none" stroke="#000" stroke-linecap="round" stroke-linejoin="round" stroke-width="1.5"/>
    <path id="Tracé_767" data-name="Tracé 767" d="M20.668,7.159a3.8,3.8,0,1,0-3.8,3.8A3.8,3.8,0,0,0,20.668,7.159Z" fill="none" stroke="#000" stroke-linecap="round" stroke-linejoin="round" stroke-width="1.5" fill-rule="evenodd"/>
  </g>
</svg>
