<svg xmlns="http://www.w3.org/2000/svg" width="19.396" height="19.499" viewBox="0 0 19.396 19.499">
  <g id="Edit_profile" data-name="Edit profile" transform="translate(-2.452 -2.25)">
    <path id="Tracé_675" data-name="Tracé 675" d="M15.26,9.227a1.528,1.528,0,0,0,1.04.412,1.588,1.588,0,0,0,.255-.022l.71-.118a2.406,2.406,0,0,0,1.4-.773l2.724-3A1.717,1.717,0,0,0,21.3,3.3l-.648-.594a1.686,1.686,0,0,0-1.231-.456,1.705,1.705,0,0,0-1.195.554L15.46,5.858a2.468,2.468,0,0,0-.6,1.353l-.081.734A1.539,1.539,0,0,0,15.26,9.227Zm4.073-5.41a.211.211,0,0,1,.155-.067.206.206,0,0,1,.146.06l.648.593a.217.217,0,0,1,0,.308L17.549,7.728a.923.923,0,0,1-.53.291l-.752.08.08-.72a.985.985,0,0,1,.231-.523Z" fill-rule="evenodd"/>
    <path id="Tracé_676" data-name="Tracé 676" d="M2.452,12.333a9.415,9.415,0,1,0,18.83,0c0-.285-.011-.57-.032-.849a.76.76,0,0,0-.807-.689.751.751,0,0,0-.689.807q.028.362.028.731a7.911,7.911,0,0,1-3.165,6.33c-.558-1.391-2.091-2.532-4.767-2.532-2.657,0-4.188,1.129-4.756,2.512A7.917,7.917,0,0,1,12.859,4.479a.757.757,0,0,0,.837-.651.749.749,0,0,0-.651-.837A9.422,9.422,0,0,0,2.452,12.333Z"/>
    <path id="Tracé_677" data-name="Tracé 677" d="M11.85,15.312a3.163,3.163,0,1,0-3.163-3.163A3.167,3.167,0,0,0,11.85,15.312Z"/>
  </g>
</svg>
