<svg xmlns="http://www.w3.org/2000/svg" width="19.5" height="19.474" viewBox="0 0 19.5 19.474">
  <g id="Folder_shield" data-name="Folder shield" transform="translate(-2.25 -2.547)">
    <path id="Tracé_704" data-name="Tracé 704" d="M15.641,21.271c3.356,0,5.333-1.978,5.333-5.333L21,11.283c0-3.423-1.241-5.136-4.6-5.136H13.742a2.147,2.147,0,0,1-1.712-.856l-.857-1.138A2.137,2.137,0,0,0,9.464,3.3H7.588C4.232,3.3,3,5.275,3,8.624v7.314c0,3.355,1.981,5.333,5.345,5.333Z" fill="none" stroke="#000" stroke-linecap="round" stroke-linejoin="round" stroke-width="1.5"/>
    <path id="Tracé_705" data-name="Tracé 705" d="M12,16.766s2.664-.806,2.664-3.028.1-2.152-.118-2.368a9.815,9.815,0,0,0-2.546-.9,9.9,9.9,0,0,0-2.546.9c-.213.214-.117.144-.117,2.368S12,16.766,12,16.766Z" fill="none" stroke="#000" stroke-linecap="round" stroke-linejoin="round" stroke-width="1.5" fill-rule="evenodd"/>
  </g>
</svg>
