<svg id="_1534129544" data-name="1534129544" xmlns="http://www.w3.org/2000/svg" xmlns:xlink="http://www.w3.org/1999/xlink" width="19.251" height="19.699" viewBox="0 0 19.251 19.699">
  <defs>
    <clipPath id="clip-path">
      <path id="Tracé_39" data-name="Tracé 39" d="M21.027,10.059H11.849v3.805h5.283c-.492,2.418-2.552,3.805-5.283,3.805a5.82,5.82,0,0,1,0-11.64,5.694,5.694,0,0,1,3.626,1.3l2.865-2.865A9.843,9.843,0,1,0,11.849,21.7c4.925,0,9.4-3.582,9.4-9.849A8.171,8.171,0,0,0,21.027,10.059Z" transform="translate(-2 -2)"/>
    </clipPath>
  </defs>
  <g id="Groupe_220" data-name="Groupe 220" clip-path="url(#clip-path)">
    <path id="Tracé_38" data-name="Tracé 38" d="M0,22.64V11l7.611,5.82Z" transform="translate(-0.895 -6.971)" fill="#fbbc05"/>
  </g>
  <g id="Groupe_221" data-name="Groupe 221" clip-path="url(#clip-path)">
    <path id="Tracé_40" data-name="Tracé 40" d="M0,4.925l7.611,5.82,3.134-2.731L21.489,6.268V0H0Z" transform="translate(-0.895 -0.895)" fill="#ea4335"/>
  </g>
  <g id="Groupe_222" data-name="Groupe 222" clip-path="url(#clip-path)">
    <path id="Tracé_42" data-name="Tracé 42" d="M0,16.565l13.431-10.3,3.537.448L21.489,0V21.489H0Z" transform="translate(-0.895 -0.895)" fill="#34a853"/>
  </g>
  <g id="Groupe_223" data-name="Groupe 223" clip-path="url(#clip-path)">
    <path id="Tracé_44" data-name="Tracé 44" d="M28.669,27.565,14.791,16.82,13,15.477,28.669,11Z" transform="translate(-8.075 -6.971)" fill="#4285f4"/>
  </g>
</svg>
