<svg xmlns="http://www.w3.org/2000/svg" width="18.87" height="19.504" viewBox="0 0 18.87 19.504">
  <g id="Headphone" transform="translate(-2.814 -2.086)">
    <path id="Tracé_706" data-name="Tracé 706" d="M17.595,18.924a2.088,2.088,0,0,1-1.621-.769,2.132,2.132,0,0,1-.431-1.866l.907-3.8a2.13,2.13,0,0,1,1.242-1.472,2.1,2.1,0,0,1,1.9.112h0a4.174,4.174,0,0,1,1.95,4.7,4.127,4.127,0,0,1-3.19,3,4.257,4.257,0,0,1-.661.079A.3.3,0,0,1,17.595,18.924Zm.938-6.576a.658.658,0,0,0-.25.053.64.64,0,0,0-.374.442L17,16.643a.646.646,0,0,0,.13.564.6.6,0,0,0,.49.222,2.891,2.891,0,0,0,.435-.052,2.656,2.656,0,0,0,2.028-1.908,2.694,2.694,0,0,0-1.249-3.033h0a.609.609,0,0,0-.3-.088Z"/>
    <path id="Tracé_707" data-name="Tracé 707" d="M13.288,21.59c-.242,0-.486-.006-.732-.012s-.522-.014-.8-.014a.75.75,0,1,1,0-1.5c.288,0,.566.007.835.014,1.868.05,2.9.075,4.145-2.255a.75.75,0,1,1,1.322.707C16.589,21.283,14.983,21.59,13.288,21.59Z"/>
    <path id="Tracé_708" data-name="Tracé 708" d="M6.9,18.926H6.809a4.173,4.173,0,0,1-1.9-7.788h0a2.1,2.1,0,0,1,1.9-.11,2.125,2.125,0,0,1,1.24,1.47l.909,3.8a2.133,2.133,0,0,1-.433,1.866,2.083,2.083,0,0,1-1.624.762ZM5.659,12.433A2.694,2.694,0,0,0,4.41,15.466a2.654,2.654,0,0,0,2.027,1.907,2.841,2.841,0,0,0,.436.053.627.627,0,0,0,.49-.222.645.645,0,0,0,.131-.563l-.909-3.8a.636.636,0,0,0-.372-.441.614.614,0,0,0-.554.033Z"/>
    <path id="Tracé_709" data-name="Tracé 709" d="M19.6,12.794a.749.749,0,0,1-.75-.75V10.189a6.6,6.6,0,0,0-13.206,0v1.852a.75.75,0,1,1-1.5,0V10.189a8.1,8.1,0,0,1,16.206,0v1.852a.75.75,0,0,1-.75.753Z"/>
  </g>
</svg>
