<svg xmlns="http://www.w3.org/2000/svg" width="20" height="20" viewBox="0 0 20 20">
  <g id="Iconly_Bold_Arrow---Right-Square" data-name="Iconly/Bold/Arrow---Right-Square" transform="translate(-2 -2)">
    <g id="Arrow---Right-Square" transform="translate(2 2)">
      <path id="Tracé_511" data-name="Tracé 511" d="M14.08,0C17.62,0,20,2.28,20,5.67h0v8.67C20,17.729,17.62,20,14.08,20H5.91C2.38,20,0,17.729,0,14.34H0V5.67C0,2.28,2.38,0,5.91,0h8.17ZM10.85,5.72a.754.754,0,0,0-1.06,0,.767.767,0,0,0,0,1.07h0l2.48,2.46H5.92a.75.75,0,0,0,0,1.5h6.35L9.79,13.22a.767.767,0,0,0-.22.53.788.788,0,0,0,.22.53.754.754,0,0,0,1.06,0h0l3.77-3.75a.774.774,0,0,0,0-1.06h0Z"/>
    </g>
  </g>
</svg>
