<svg xmlns="http://www.w3.org/2000/svg" width="21.772" height="16.791" viewBox="0 0 21.772 16.791">
  <g id="Iconly_Light_3-User" data-name="Iconly/Light/3-User" transform="translate(-1 -3.5)">
    <g id="_3-User" data-name="3-User" transform="translate(1 3.5)">
      <path id="Stroke-1" d="M16.888,7.4a2.871,2.871,0,0,0,.066-5.677" fill="none" stroke="#000" stroke-linecap="round" stroke-linejoin="round" stroke-width="1.5" fill-rule="evenodd"/>
      <path id="Stroke-3" d="M18.729,10.75c1.351.2,2.294.675,2.294,1.65,0,.671-.444,1.107-1.162,1.381" fill="none" stroke="#000" stroke-linecap="round" stroke-linejoin="round" stroke-width="1.5" fill-rule="evenodd"/>
      <path id="Stroke-5" d="M10.887,11.164c-3.214,0-5.959.487-5.959,2.432s2.728,2.445,5.959,2.445c3.214,0,5.958-.482,5.958-2.428S14.118,11.164,10.887,11.164Z" fill="none" stroke="#000" stroke-linecap="round" stroke-linejoin="round" stroke-width="1.5" fill-rule="evenodd"/>
      <path id="Stroke-7" d="M10.887,8.388a3.805,3.805,0,1,0-.028,0Z" fill="none" stroke="#000" stroke-linecap="round" stroke-linejoin="round" stroke-width="1.5" fill-rule="evenodd"/>
      <path id="Stroke-9" d="M4.885,7.4A2.871,2.871,0,0,1,4.819,1.72" fill="none" stroke="#000" stroke-linecap="round" stroke-linejoin="round" stroke-width="1.5" fill-rule="evenodd"/>
      <path id="Stroke-11" d="M3.044,10.75c-1.351.2-2.294.675-2.294,1.65,0,.671.444,1.107,1.162,1.381" fill="none" stroke="#000" stroke-linecap="round" stroke-linejoin="round" stroke-width="1.5" fill-rule="evenodd"/>
    </g>
  </g>
</svg>
