<svg xmlns="http://www.w3.org/2000/svg" width="19" height="19" viewBox="0 0 19 19">
  <g id="Image_circle" data-name="Image circle" transform="translate(-2.5 -2.801)">
    <path id="Tracé_573" data-name="Tracé 573" d="M9.8,6.91a2.57,2.57,0,1,1-2.57,2.57A2.572,2.572,0,0,1,9.8,6.91Zm-1.97,7.714c.647.355,1.224.7,1.683.991a.3.3,0,0,0,.363-.03l2.74-2.459a4.834,4.834,0,0,1,6.068-.287l2.154,1.566a.291.291,0,0,0,.458-.17A9.277,9.277,0,0,0,21.5,12.3a9.5,9.5,0,1,0-19,0,9.377,9.377,0,0,0,.448,2.851.3.3,0,0,0,.479.13A3.722,3.722,0,0,1,7.825,14.624Z" fill-rule="evenodd"/>
    <path id="Tracé_574" data-name="Tracé 574" d="M9.795,10.549A1.07,1.07,0,1,0,8.725,9.48,1.07,1.07,0,0,0,9.795,10.549Z" fill-rule="evenodd"/>
    <path id="Tracé_575" data-name="Tracé 575" d="M8.243,17.048a.3.3,0,0,0-.044-.476c-.328-.2-.7-.412-1.093-.63-1.327-.719-2.147.171-3.133.878a.3.3,0,0,0-.089.4,9.546,9.546,0,0,0,1.593,1.967.293.293,0,0,0,.4,0C6.33,18.778,7.462,17.751,8.243,17.048Z" fill-rule="evenodd"/>
    <path id="Tracé_576" data-name="Tracé 576" d="M17.8,14.052a3.34,3.34,0,0,0-4.191.2L7.17,20.026a.291.291,0,0,0,.042.469,9.47,9.47,0,0,0,13.374-4.146.293.293,0,0,0-.1-.364C19.969,15.613,18.551,14.6,17.8,14.052Z" fill-rule="evenodd"/>
  </g>
</svg>
