<svg xmlns="http://www.w3.org/2000/svg" width="18.06" height="19.5" viewBox="0 0 18.06 19.5">
  <g id="Mobile_card_bank" data-name="Mobile card bank" transform="translate(-2.97 -2.25)">
    <path id="Tracé_714" data-name="Tracé 714" d="M15.571,14.911v2.47A3.618,3.618,0,0,1,11.953,21H7.338a3.617,3.617,0,0,1-3.618-3.618V6.618A3.618,3.618,0,0,1,7.337,3h4.616a3.618,3.618,0,0,1,3.618,3.618V7.765" fill="none" stroke="#000" stroke-linecap="round" stroke-linejoin="round" stroke-width="1.5"/>
    <path id="Tracé_715" data-name="Tracé 715" d="M18.381,7.766h-5a1.841,1.841,0,0,0-1.9,2v3.155a1.839,1.839,0,0,0,1.9,2h5a1.839,1.839,0,0,0,1.9-2V9.761A1.839,1.839,0,0,0,18.381,7.766Z" fill="none" stroke="#000" stroke-linecap="round" stroke-linejoin="round" stroke-width="1.5" fill-rule="evenodd"/>
    <path id="Tracé_716" data-name="Tracé 716" d="M11.486,10.3H20.28" fill="none" stroke="#000" stroke-linecap="round" stroke-linejoin="round" stroke-width="1.5"/>
    <path id="Tracé_717" data-name="Tracé 717" d="M9.583,17.4v.045m.184-.036a.185.185,0,1,1-.185-.185A.185.185,0,0,1,9.767,17.408Z" fill="none" stroke="#000" stroke-linecap="round" stroke-linejoin="round" stroke-width="1.5"/>
  </g>
</svg>
