<svg xmlns="http://www.w3.org/2000/svg" width="16.797" height="20.5" viewBox="0 0 16.797 20.5">
  <g id="Ringtone_2_-_1" data-name="Ringtone 2 - 1" transform="translate(-4.503 -2.25)">
    <path id="Tracé_124" data-name="Tracé 124" d="M6.446,10.692v1.3a5.216,5.216,0,0,1-.5,2.217l-.459.974a2.244,2.244,0,0,0,2.03,3.2H18.28a2.244,2.244,0,0,0,2.03-3.2l-.458-.974a5.2,5.2,0,0,1-.5-2.217v-1.3A6.456,6.456,0,0,0,7.19,7.681" transform="translate(0 0.069)" fill="none" stroke="#1993d5" stroke-linecap="round" stroke-linejoin="round" stroke-width="1.5"/>
    <path id="Tracé_125" data-name="Tracé 125" d="M12.5,3V4.306" transform="translate(0.401 0)" fill="none" stroke="#1993d5" stroke-linecap="round" stroke-linejoin="round" stroke-width="1.5"/>
    <path id="Tracé_126" data-name="Tracé 126" d="M9.488,9.2a2.437,2.437,0,0,1,1.644-1.938" transform="translate(0.234 0.237)" fill="none" stroke="#1993d5" stroke-linecap="round" stroke-linejoin="round" stroke-width="1.5"/>
    <path id="Tracé_127" data-name="Tracé 127" d="M9.613,18.114a3.047,3.047,0,0,0,5.353,1.99" transform="translate(0.241 0.84)" fill="none" stroke="#1993d5" stroke-linecap="round" stroke-linejoin="round" stroke-width="1.5"/>
  </g>
</svg>
