<svg xmlns="http://www.w3.org/2000/svg" width="19.456" height="19.809" viewBox="0 0 19.456 19.809">
  <g id="Password_lock" data-name="Password lock" transform="translate(-2.522 -2.574)">
    <path id="Tracé_603" data-name="Tracé 603" d="M3.583,18.434l2.889,2.889m-2.889,0,2.889-2.889" fill="none" stroke="#000" stroke-linecap="round" stroke-linejoin="round" stroke-width="1.5"/>
    <path id="Tracé_604" data-name="Tracé 604" d="M18.028,18.434l2.889,2.888m-2.889,0,2.889-2.888" fill="none" stroke="#000" stroke-linecap="round" stroke-linejoin="round" stroke-width="1.5"/>
    <path id="Tracé_605" data-name="Tracé 605" d="M10.806,18.434l2.889,2.888m-2.889,0,2.889-2.888" fill="none" stroke="#000" stroke-linecap="round" stroke-linejoin="round" stroke-width="1.5"/>
    <path id="Tracé_606" data-name="Tracé 606" d="M14.451,13.954a2.185,2.185,0,0,0,2.184-2.185V9.3a2.185,2.185,0,0,0-2.184-2.185h-4.4A2.184,2.184,0,0,0,7.864,9.3v2.471a2.184,2.184,0,0,0,2.184,2.185h.85" fill="none" stroke="#000" stroke-linecap="round" stroke-linejoin="round" stroke-width="1.5"/>
    <path id="Tracé_607" data-name="Tracé 607" d="M12.251,10.215v.639" fill="none" stroke="#000" stroke-linecap="round" stroke-linejoin="round" stroke-width="1.5"/>
    <path id="Tracé_608" data-name="Tracé 608" d="M14.878,7.157V5.919a2.628,2.628,0,0,0-5.256-.011V7.157" fill="none" stroke="#000" stroke-linecap="round" stroke-linejoin="round" stroke-width="1.5"/>
  </g>
</svg>
