<svg xmlns="http://www.w3.org/2000/svg" width="18.211" height="19.5" viewBox="0 0 18.211 19.5">
  <g id="Phone_tablet" data-name="Phone &amp; tablet" transform="translate(-2.895 -2.25)">
    <path id="Tracé_718" data-name="Tracé 718" d="M19.189,6.415A3.415,3.415,0,0,0,15.773,3H7.061A3.416,3.416,0,0,0,3.645,6.416V16.578a3.416,3.416,0,0,0,3.416,3.415H9.3" fill="none" stroke="#000" stroke-linecap="round" stroke-linejoin="round" stroke-width="1.5"/>
    <path id="Tracé_719" data-name="Tracé 719" d="M10.209,6.1h1.677" fill="none" stroke="#000" stroke-linecap="round" stroke-linejoin="round" stroke-width="1.5"/>
    <path id="Tracé_720" data-name="Tracé 720" d="M20.354,11.381v7.2A2.419,2.419,0,0,1,17.935,21H14.247a2.42,2.42,0,0,1-2.421-2.42v-7.2a2.419,2.419,0,0,1,2.42-2.42h3.688A2.419,2.419,0,0,1,20.354,11.381Z" fill="none" stroke="#000" stroke-linecap="round" stroke-linejoin="round" stroke-width="1.5"/>
    <path id="Tracé_721" data-name="Tracé 721" d="M16.1,18.145h0m0-.006a.006.006,0,1,0,.006.006A.006.006,0,0,0,16.1,18.138Z" fill="none" stroke="#000" stroke-linecap="round" stroke-linejoin="round" stroke-width="1.5"/>
  </g>
</svg>
