<svg xmlns="http://www.w3.org/2000/svg" width="18.162" height="19.501" viewBox="0 0 18.162 19.501">
  <g id="preferences_-_1" data-name="preferences - 1" transform="translate(-3.148 -2.25)">
    <path id="Tracé_657" data-name="Tracé 657" d="M17.808,18.857a2.159,2.159,0,0,1-4.318-.016v-.014a2.159,2.159,0,1,1,4.318.029Z" fill="none" stroke="#000" stroke-linecap="round" stroke-linejoin="round" stroke-width="1.5"/>
    <path id="Tracé_658" data-name="Tracé 658" d="M11.078,12.015A2.159,2.159,0,0,1,6.76,12v-.015a2.159,2.159,0,0,1,4.318.029Z" fill="none" stroke="#000" stroke-linecap="round" stroke-linejoin="round" stroke-width="1.5"/>
    <path id="Tracé_659" data-name="Tracé 659" d="M17.4,5.174a2.159,2.159,0,0,1-4.318-.016V5.145a2.159,2.159,0,1,1,4.318.029Z" fill="none" stroke="#000" stroke-linecap="round" stroke-linejoin="round" stroke-width="1.5"/>
    <path id="Tracé_660" data-name="Tracé 660" d="M3.9,18.842H9.8m8.013,0h2.75" fill="none" stroke="#000" stroke-linecap="round" stroke-linejoin="round" stroke-width="1.5"/>
    <path id="Tracé_661" data-name="Tracé 661" d="M3.9,12h2.86m8.028,0h5.774" fill="none" stroke="#000" stroke-linecap="round" stroke-linejoin="round" stroke-width="1.5"/>
    <path id="Tracé_662" data-name="Tracé 662" d="M3.9,5.158H9.5m7.9,0H20.56" fill="none" stroke="#000" stroke-linecap="round" stroke-linejoin="round" stroke-width="1.5"/>
  </g>
</svg>
