<svg xmlns="http://www.w3.org/2000/svg" width="19.5" height="18.35" viewBox="0 0 19.5 18.35">
  <path id="Receipt_bill" data-name="Receipt bill" d="M14,4.506l-1.847.821a2.18,2.18,0,0,1-1.893-.058h0l-.648-.342a.213.213,0,0,0-.23.02.39.39,0,0,0-.158.33V17.82a3.338,3.338,0,0,1-.558,1.854H18a2.292,2.292,0,0,0,1.834-.726,3.288,3.288,0,0,0,.655-2.2L20.5,5.276h0a.39.39,0,0,0-.156-.332.215.215,0,0,0-.232-.018l-.648.342h0a2.18,2.18,0,0,1-1.892.058l-.005,0-1.842-.819A2.141,2.141,0,0,0,14,4.506ZM5.863,19.674A1.854,1.854,0,0,0,7.718,17.82V10.273l-.787.351a2.178,2.178,0,0,1-1.892-.058h0l-.648-.342a.216.216,0,0,0-.233.018A.389.389,0,0,0,4,10.573V17.82a1.858,1.858,0,0,0,1.863,1.854ZM7.718,8.646a.843.843,0,0,0-.15.051l-1.24.553a.678.678,0,0,1-.593-.013h0l-.652-.344-.008,0A1.793,1.793,0,0,0,2.5,10.573V17.82a3.358,3.358,0,0,0,3.363,3.354H18A3.782,3.782,0,0,0,20.97,19.93a4.761,4.761,0,0,0,1.021-3.177m0,0L22,5.277a1.793,1.793,0,0,0-2.575-1.684l-.658.347h0a.68.68,0,0,1-.6.013l-1.842-.819-.005,0a3.641,3.641,0,0,0-2.929,0l-1.847.821a.68.68,0,0,1-.595-.012h0L10.3,3.6l-.008,0A1.8,1.8,0,0,0,7.718,5.276v3.37m3.007.99a.75.75,0,0,1,.75-.75h.276a.75.75,0,0,1,0,1.5h-.276A.75.75,0,0,1,10.725,9.636Zm2.9,0a.75.75,0,0,1,.75-.75h3.911a.75.75,0,1,1,0,1.5H14.375A.75.75,0,0,1,13.625,9.636Zm-2.9,4.726a.75.75,0,0,1,.75-.75h.276a.75.75,0,0,1,0,1.5h-.276A.75.75,0,0,1,10.725,14.362Zm2.9,0a.75.75,0,0,1,.75-.75h3.911a.75.75,0,0,1,0,1.5H14.375A.75.75,0,0,1,13.625,14.362Z" transform="translate(-2.5 -2.824)" fill-rule="evenodd"/>
</svg>
