<svg xmlns="http://www.w3.org/2000/svg" width="15.992" height="19.5" viewBox="0 0 15.992 19.5">
  <g id="Ringtone_2_-_1" data-name="Ringtone 2 - 1" transform="translate(-4.504 -2.25)">
    <path id="Tracé_507" data-name="Tracé 507" d="M6.385,10.352V11.58a4.941,4.941,0,0,1-.469,2.1L5.48,14.6A2.126,2.126,0,0,0,7.4,17.634H17.6A2.126,2.126,0,0,0,19.519,14.6l-.434-.922a4.928,4.928,0,0,1-.47-2.1V10.352A6.116,6.116,0,0,0,7.089,7.5" fill="none" stroke="#000" stroke-linecap="round" stroke-linejoin="round" stroke-width="1.5"/>
    <path id="Tracé_508" data-name="Tracé 508" d="M12.5,3V4.238" fill="none" stroke="#000" stroke-linecap="round" stroke-linejoin="round" stroke-width="1.5"/>
    <path id="Tracé_509" data-name="Tracé 509" d="M9.488,9.1a2.309,2.309,0,0,1,1.558-1.836" fill="none" stroke="#000" stroke-linecap="round" stroke-linejoin="round" stroke-width="1.5"/>
    <path id="Tracé_510" data-name="Tracé 510" d="M9.613,18.114A2.887,2.887,0,0,0,14.685,20" fill="none" stroke="#000" stroke-linecap="round" stroke-linejoin="round" stroke-width="1.5"/>
  </g>
</svg>
