<svg xmlns="http://www.w3.org/2000/svg" width="19.001" height="19.062" viewBox="0 0 19.001 19.062">
  <path id="Send_message" data-name="Send message" d="M20.877,3.916a2.08,2.08,0,0,0-2.087-.532L4.017,7.732A2.121,2.121,0,0,0,3.5,11.566l5.123,3.169a.4.4,0,0,0,.495-.059L15.27,8.453a.75.75,0,1,1,1.066,1.054l-6.167,6.241a.4.4,0,0,0-.056.491l3.141,5.112a2.084,2.084,0,0,0,1.788,1.007,2.053,2.053,0,0,0,.291-.02,2.084,2.084,0,0,0,1.745-1.5L21.412,6.011A2.088,2.088,0,0,0,20.877,3.916Z" transform="translate(-2.5 -3.295)" fill-rule="evenodd"/>
</svg>
