<svg xmlns="http://www.w3.org/2000/svg" width="19.422" height="20.722" viewBox="0 0 19.422 20.722">
  <g id="Setting" transform="translate(-2.399 -1.528)">
    <path id="Tracé_615" data-name="Tracé 615" d="M14.71,19.6a1.9,1.9,0,0,1,1.913-1.913,1.948,1.948,0,0,1,.915.256,1.913,1.913,0,0,0,2.609-.7l.659-1.1a1.9,1.9,0,0,0-.7-2.609,1.9,1.9,0,0,1-.7-2.609,1.877,1.877,0,0,1,.7-.7" fill="none" stroke="#000" stroke-linecap="round" stroke-linejoin="round" stroke-width="1.5"/>
    <path id="Tracé_616" data-name="Tracé 616" d="M6.811,5.82a1.831,1.831,0,0,0,.915.256A1.913,1.913,0,0,0,9.639,4.191a1.9,1.9,0,0,1,1.9-1.913H12.8A1.913,1.913,0,0,1,14.71,4.246a1.832,1.832,0,0,0,.256.915,1.9,1.9,0,0,0,2.609.677,1.913,1.913,0,0,1,2.609.7l.622,1.08v.009" fill="none" stroke="#000" stroke-linecap="round" stroke-linejoin="round" stroke-width="1.5"/>
    <path id="Tracé_617" data-name="Tracé 617" d="M4.2,6.525l-.668,1.1a1.913,1.913,0,0,0,.7,2.609,1.913,1.913,0,0,1,0,3.314,1.9,1.9,0,0,0-.7,2.6l.632,1.089a1.913,1.913,0,0,0,2.609.741,1.895,1.895,0,0,1,2.6.7,1.831,1.831,0,0,1,.256.915A1.913,1.913,0,0,0,11.543,21.5H12.8" fill="none" stroke="#000" stroke-linecap="round" stroke-linejoin="round" stroke-width="1.5"/>
    <circle id="Ellipse_81" data-name="Ellipse 81" cx="2.636" cy="2.636" r="2.636" transform="translate(9.539 9.253)" fill="none" stroke="#000" stroke-linecap="round" stroke-linejoin="round" stroke-width="1.5"/>
  </g>
</svg>
