<svg xmlns="http://www.w3.org/2000/svg" width="17.699" height="19.5" viewBox="0 0 17.699 19.5">
  <g id="Share" transform="translate(-4.131 -2.25)">
    <path id="Tracé_737" data-name="Tracé 737" d="M18.38,3.75A1.95,1.95,0,1,0,20.33,5.7,1.949,1.949,0,0,0,18.38,3.75ZM14.93,5.7a3.45,3.45,0,1,1,3.45,3.45A3.449,3.449,0,0,1,14.93,5.7Zm-7.35,4.35A1.95,1.95,0,1,0,9.531,12,1.949,1.949,0,0,0,7.581,10.05ZM4.131,12a3.45,3.45,0,1,1,3.45,3.45A3.449,3.449,0,0,1,4.131,12ZM18.38,16.35a1.95,1.95,0,1,0,1.95,1.95A1.949,1.949,0,0,0,18.38,16.35ZM14.93,18.3a3.45,3.45,0,1,1,3.45,3.45A3.449,3.449,0,0,1,14.93,18.3Z" fill-rule="evenodd"/>
    <path id="Tracé_738" data-name="Tracé 738" d="M16.7,6.681a.75.75,0,0,1-.27,1.026l-6.139,3.581a.75.75,0,1,1-.756-1.3l6.138-3.581A.75.75,0,0,1,16.7,6.681Zm-7.433,6.3a.75.75,0,0,1,1.026-.27l6.147,3.582a.75.75,0,1,1-.755,1.3L9.534,14.006A.75.75,0,0,1,9.263,12.981Z" fill-rule="evenodd"/>
  </g>
</svg>
