<svg xmlns="http://www.w3.org/2000/svg" width="14.252" height="19.5" viewBox="0 0 14.252 19.5">
  <g id="Smart_phone" data-name="Smart phone" transform="translate(-4.874 -2.25)">
    <path id="Tracé_739" data-name="Tracé 739" d="M18.375,6.618V17.382A3.618,3.618,0,0,1,14.757,21H9.243a3.618,3.618,0,0,1-3.618-3.618V6.618A3.618,3.618,0,0,1,9.242,3h5.516A3.618,3.618,0,0,1,18.375,6.618Z" fill="none" stroke="#000" stroke-linecap="round" stroke-linejoin="round" stroke-width="1.5"/>
    <path id="Tracé_740" data-name="Tracé 740" d="M10.609,6.688h2.784" fill="none" stroke="#000" stroke-linecap="round" stroke-linejoin="round" stroke-width="1.5"/>
    <path id="Tracé_741" data-name="Tracé 741" d="M12,17.331v-.048m0-.253a.25.25,0,1,0,.25.25A.25.25,0,0,0,12,17.029Z" fill="none" stroke="#000" stroke-linecap="round" stroke-linejoin="round" stroke-width="1.5"/>
  </g>
</svg>
