<svg xmlns="http://www.w3.org/2000/svg" width="19.5" height="19.5" viewBox="0 0 19.5 19.5">
  <g id="Stars_square" data-name="Stars square" transform="translate(-2.364 -2.25)">
    <path id="Tracé_742" data-name="Tracé 742" d="M7.9,3h8.435c2.948,0,4.783,2.081,4.783,5.026v7.947c0,2.945-1.835,5.026-4.784,5.026H7.9c-2.948,0-4.782-2.081-4.782-5.026V8.026C3.114,5.081,4.957,3,7.9,3Z" fill="none" stroke="#000" stroke-linecap="round" stroke-linejoin="round" stroke-width="1.5"/>
    <path id="Tracé_743" data-name="Tracé 743" d="M16.913,12a7.463,7.463,0,0,0-4.8,4.8,7.465,7.465,0,0,0-4.8-4.8,7.469,7.469,0,0,0,4.8-4.8A7.467,7.467,0,0,0,16.913,12Z" fill="none" stroke="#000" stroke-linecap="round" stroke-linejoin="round" stroke-width="1.5" fill-rule="evenodd"/>
  </g>
</svg>
