<svg xmlns="http://www.w3.org/2000/svg" width="19.5" height="19.5" viewBox="0 0 19.5 19.5">
  <g id="user_circle" data-name="user circle" transform="translate(-2.4 -2.25)">
    <path id="Tracé_678" data-name="Tracé 678" d="M12.172,14.682a3.331,3.331,0,1,0-3.33-3.331A3.334,3.334,0,0,0,12.172,14.682Z"/>
    <path id="Tracé_679" data-name="Tracé 679" d="M12.15,21.75A9.75,9.75,0,1,1,21.9,12,9.761,9.761,0,0,1,12.15,21.75Zm0-18a8.247,8.247,0,0,0-5.011,14.8c.576-1.486,2.194-2.71,5.033-2.71s4.443,1.21,5.025,2.682A8.247,8.247,0,0,0,12.15,3.75Z" fill-rule="evenodd"/>
  </g>
</svg>
