<svg xmlns="http://www.w3.org/2000/svg" width="19.5" height="19.5" viewBox="0 0 19.5 19.5">
  <g id="user" transform="translate(-2.4 -2.25)">
    <path id="Tracé_758" data-name="Tracé 758" d="M7.933,3h8.435c2.948,0,4.783,2.081,4.783,5.026v7.947c0,2.945-1.835,5.026-4.784,5.026H7.933C4.984,21,3.15,18.919,3.15,15.974V8.026C3.15,5.081,4.993,3,7.933,3Z" fill="none" stroke="#000" stroke-linecap="round" stroke-linejoin="round" stroke-width="1.5"/>
    <path id="Tracé_759" data-name="Tracé 759" d="M8.032,17.257c0-1.343,1.063-3.019,4.114-3.019s4.122,1.661,4.122,3" fill="none" stroke="#000" stroke-linecap="round" stroke-linejoin="round" stroke-width="1.5"/>
    <path id="Tracé_760" data-name="Tracé 760" d="M14.778,9.371a2.629,2.629,0,1,1-2.629-2.629A2.629,2.629,0,0,1,14.778,9.371Z" fill="none" stroke="#000" stroke-linecap="round" stroke-linejoin="round" stroke-width="1.5" fill-rule="evenodd"/>
  </g>
</svg>
