<svg xmlns="http://www.w3.org/2000/svg" width="18.053" height="19.642" viewBox="0 0 18.053 19.642">
  <g id="Wallet_doublle" data-name="Wallet doublle" transform="translate(-2.974 -2.18)">
    <path id="Tracé_539" data-name="Tracé 539" d="M15.851,4.849h.025a6.629,6.629,0,0,1,2.3.414.1.1,0,0,0,.133-.116,3.522,3.522,0,0,0-3.989-2.924l-6.938,1A3.367,3.367,0,0,0,4.549,5.753a.1.1,0,0,0,.149.108,6.627,6.627,0,0,1,3.461-.983Z" fill-rule="evenodd"/>
    <path id="Tracé_540" data-name="Tracé 540" d="M17.452,14.162a.749.749,0,0,1-.748.75h0a.75.75,0,1,1,.751-.75Zm-2.184.051a1.65,1.65,0,0,0,1.647,1.649h3.812a.3.3,0,0,0,.3-.3l-.012-2.69a.3.3,0,0,0-.3-.3h-3.8A1.646,1.646,0,0,0,15.268,14.213Z" fill-rule="evenodd"/>
    <path id="Tracé_541" data-name="Tracé 541" d="M12.327,11.252H7.521a.75.75,0,0,1,0-1.5h4.806a.75.75,0,0,1,0,1.5Zm1.441,2.961a3.148,3.148,0,0,1,3.147-3.141H20.7a.287.287,0,0,0,.291-.3,5.177,5.177,0,0,0-5.158-4.817h-.02l-7.692.03a5.167,5.167,0,0,0-5.148,5.192L3,16.674a5.177,5.177,0,0,0,5.173,5.148h.02l7.694-.029a5.179,5.179,0,0,0,5.01-4.089.285.285,0,0,0-.285-.342H16.915A3.152,3.152,0,0,1,13.768,14.213Z" fill-rule="evenodd"/>
  </g>
</svg>
